<?xml version="1.0" standalone="no"?>
<!DOCTYPE svg PUBLIC "-//W3C//DTD SVG 20010904//EN"
 "http://www.w3.org/TR/2001/REC-SVG-20010904/DTD/svg10.dtd">
<svg version="1.0" xmlns="http://www.w3.org/2000/svg"
 width="118.000000pt" height="118.000000pt" viewBox="0 0 118.000000 118.000000"
 preserveAspectRatio="xMidYMid meet">

<g transform="translate(0.000000,118.000000) scale(0.100000,-0.100000)"
fill="#000000" stroke="none">
<path d="M490 1041 c0 -5 9 -31 20 -57 l21 -47 -40 -81 c-137 -281 -361 -739
-361 -740 0 -1 31 0 70 1 66 1 71 3 101 38 18 20 46 43 62 52 52 27 176 42
340 43 l158 0 30 -65 29 -65 54 0 c30 0 61 -3 70 -6 9 -4 16 -1 16 6 0 14
-417 898 -432 918 -12 14 -138 17 -138 3z m212 -468 c53 -100 93 -185 90 -188
-3 -3 -56 -5 -117 -5 -119 0 -200 -11 -246 -34 -29 -15 -45 -10 -30 8 4 6 32
63 60 126 107 235 135 290 141 283 4 -5 50 -90 102 -190z"/>
</g>
</svg>
